<svg width="138" height="41" viewBox="0 0 138 41" fill="none" xmlns="http://www.w3.org/2000/svg">
<path d="M66.2441 21.0869C66.2441 24.6221 65.2627 27.3271 63.2998 29.2021C61.3369 31.0674 58.5098 32 54.8184 32H48.8271V10.584H55.4482C58.8564 10.584 61.5078 11.502 63.4023 13.3379C65.2969 15.1738 66.2441 17.7568 66.2441 21.0869ZM62.5527 21.2041C62.5527 16.0771 60.1553 13.5137 55.3604 13.5137H52.3281V29.0557H54.8184C59.9746 29.0557 62.5527 26.4385 62.5527 21.2041ZM73.9346 32H70.4922V15.7988H73.9346V32ZM70.2871 11.5068C70.2871 10.8916 70.4531 10.418 70.7852 10.0859C71.127 9.75391 71.6104 9.58789 72.2354 9.58789C72.8408 9.58789 73.3096 9.75391 73.6416 10.0859C73.9834 10.418 74.1543 10.8916 74.1543 11.5068C74.1543 12.0928 73.9834 12.5566 73.6416 12.8984C73.3096 13.2305 72.8408 13.3965 72.2354 13.3965C71.6104 13.3965 71.127 13.2305 70.7852 12.8984C70.4531 12.5566 70.2871 12.0928 70.2871 11.5068Z" fill="#0098AC"/>
<path d="M93.417 17.0586C93.417 19.2949 92.6846 21.0088 91.2197 22.2002C89.7549 23.3916 87.6699 23.9873 84.9648 23.9873H82.7383V32H79.2373V10.584H85.4043C88.0801 10.584 90.082 11.1309 91.4102 12.2246C92.748 13.3184 93.417 14.9297 93.417 17.0586ZM82.7383 21.043H84.5986C86.3955 21.043 87.7139 20.7305 88.5537 20.1055C89.3936 19.4805 89.8135 18.5039 89.8135 17.1758C89.8135 15.9453 89.4375 15.0273 88.6855 14.4219C87.9336 13.8164 86.7617 13.5137 85.1699 13.5137H82.7383V21.043ZM100.771 32H97.3281V9.20703H100.771V32ZM112.782 32.293C110.263 32.293 108.29 31.5605 106.864 30.0957C105.448 28.6211 104.74 26.5947 104.74 24.0166C104.74 21.3701 105.399 19.29 106.718 17.7764C108.036 16.2627 109.848 15.5059 112.152 15.5059C114.291 15.5059 115.98 16.1553 117.221 17.4541C118.461 18.7529 119.081 20.54 119.081 22.8154V24.6758H108.285C108.334 26.248 108.759 27.459 109.56 28.3086C110.36 29.1484 111.488 29.5684 112.943 29.5684C113.9 29.5684 114.789 29.4805 115.609 29.3047C116.439 29.1191 117.328 28.8164 118.275 28.3965V31.1943C117.436 31.5947 116.586 31.8779 115.727 32.0439C114.867 32.21 113.886 32.293 112.782 32.293ZM112.152 18.1133C111.059 18.1133 110.18 18.46 109.516 19.1533C108.861 19.8467 108.471 20.8574 108.344 22.1855H115.697C115.678 20.8477 115.355 19.8369 114.73 19.1533C114.105 18.46 113.246 18.1133 112.152 18.1133ZM126.596 23.7236L121.161 15.7988H125.087L128.778 21.4678L132.499 15.7988H136.396L130.946 23.7236L136.674 32H132.777L128.778 25.9355L124.794 32H120.897L126.596 23.7236Z" fill="#00DA44"/>
<path d="M0 21.5357C0 19.0439 2.02005 17.0238 4.5119 17.0238H16.9196V21.5357H0Z" fill="#0098AC"/>
<path d="M12.4077 21.5357L12.4077 8.00001L16.9196 8.00001L16.9196 21.5357L12.4077 21.5357Z" fill="#0098AC"/>
<path d="M37.0952 18.1518C37.0952 20.6436 35.0752 22.6637 32.5833 22.6637L20.1756 22.6637L20.1756 18.1518L37.0952 18.1518Z" fill="#00DA44"/>
<path d="M0 27.1756H16.9196V31.6875H4.5119C2.02005 31.6875 0 29.6675 0 27.1756Z" fill="#0098AC"/>
<path d="M37.0952 12.5119L20.1756 12.5119L20.1756 8L32.5833 8C35.0752 8 37.0952 10.02 37.0952 12.5119Z" fill="#00DA44"/>
<path d="M24.6875 18.1518L24.6875 31.6875L20.1756 31.6875L20.1756 18.1518L24.6875 18.1518Z" fill="#00DA44"/>
<rect y="29.4315" width="10.1518" height="4.51191" rx="2.25595" transform="rotate(-90 0 29.4315)" fill="#0098AC"/>
<rect x="37.0952" y="10.256" width="10.1518" height="4.51191" rx="2.25595" transform="rotate(90 37.0952 10.256)" fill="#00DA44"/>
</svg>
